# xmcd CD database file
#
# Track frame offsets:
#	150
#	32837
#	50890
#	65971
#	88451
#	114308
#	139337
#	165445
#	180608
#	207252
#	227963
#	255651
#	283401
#	303688
#	323305
#
# Disc length: 4642 seconds
#
# Revision: 0
# Processed by: cddbd v1.5.2PL0 Copyright (c) Steve Scherf et al.
# Submitted via: CDex 1.51
#
DISCID=e912200f
DTITLE=Barry Levenson - The Late Show
DYEAR=2011
DGENRE=Blues
TTITLE0=Riley`s Shuffle - Blue Tears
TTITLE1=Whole Lotta Blues
TTITLE2=One For Muddy
TTITLE3=Meters Runnin'
TTITLE4=The Late Show
TTITLE5=Turn Up The A.C.
TTITLE6=Slippin' Down Blues
TTITLE7=Charlie´s Ride
TTITLE8=Steel Life
TTITLE9=Wrong Side Of The Blues
TTITLE10=West Side Rain
TTITLE11=Down At The Hill
TTITLE12=Rush Hour
TTITLE13=Drinkin' Stops Me Thinkin'
TTITLE14=Gree Is Blue
EXTD=YEAR: 2011
EXTT0=
EXTT1=
EXTT2=
EXTT3=
EXTT4=
EXTT5=
EXTT6=
EXTT7=
EXTT8=
EXTT9=
EXTT10=
EXTT11=
EXTT12=
EXTT13=
EXTT14=
PLAYORDER=
